PathFileType	4	(X/Y/Z)	./resultDataOpenSim/trcMotMarkerGrf/sub06/qtm-15-03.trc
DataRate	CameraRate	NumFrames	NumMarkers	Units	OrigDataRate	OrigDataStartFrame	OrigNumFrames
250.000000	250.000000	13	24	m	250.000000	1	521
Frame#	Time	L.Toe.Tip			R.Toe.Tip			L.Ankle.Lat			R.Ankle.Lat			L.Ankle.Med			R.Ankle.Med			L.Heel			R.Heel			L.Knee.Lat			R.Knee.Lat			L.Knee.Med			R.Knee.Med			L.Thigh.Upper			R.Thigh.Upper			L.ASIS			R.ASIS			V.Sacral			L.Acromium			R.Acromium			C7			L.Elbow			R.Elbow			L.Wrist.Lat			R.Wrist.Lat
		X1	Y1	Z1	X2	Y2	Z2	X3	Y3	Z3	X4	Y4	Z4	X5	Y5	Z5	X6	Y6	Z6	X7	Y7	Z7	X8	Y8	Z8	X9	Y9	Z9	X10	Y10	Z10	X11	Y11	Z11	X12	Y12	Z12	X13	Y13	Z13	X14	Y14	Z14	X15	Y15	Z15	X16	Y16	Z16	X17	Y17	Z17	X18	Y18	Z18	X19	Y19	Z19	X20	Y20	Z20	X21	Y21	Z21	X22	Y22	Z22	X23	Y23	Z23	X24	Y24	Z24

1	0	-1.5188317	0.03128341	-0.10859277	-0.91858903	0.12874012	0.090918963	-1.6392183	0.069522017	-0.12479739	-1.0449606	0.086003037	0.1021072	-1.633003	0.080991335	-0.039629334	-1.0354042	0.11602679	0.017426246	NaN	NaN	NaN	-1.0769499	0.038852794	0.030872175	-1.482232	0.40604904	-0.14004314	-1.1771661	0.45317962	0.10799916	-1.5077441	0.41700504	-0.019498552	-1.1926624	0.42807299	-0.020404581	-1.3860933	0.78127479	-0.20354324	-1.368165	0.77557595	0.14763037	-1.3035609	0.82524944	-0.1606725	-1.2880907	0.83525151	0.082949168	-1.4707887	0.90253815	-0.016626802	-1.3316196	1.3105583	-0.21798471	-1.355989	1.2962948	0.14687342	-1.4232041	1.34189	-0.040487041	-1.2714473	0.99131044	-0.28720327	-1.4911106	1.0092416	0.20002307	-1.0417406	0.90883276	-0.23377208	-1.4157924	0.7848976	0.23787667
2	0.004	-1.5187715	0.031258539	-0.10861108	-0.90698898	0.13238005	0.091213115	-1.6387846	0.070049649	-0.12474802	-1.0324916	0.08714051	0.10170422	-1.6342438	0.081163093	-0.039015562	-1.0232918	0.11767878	0.017051625	NaN	NaN	NaN	-1.0634234	0.039536149	0.030094797	-1.4784869	0.40513788	-0.13990274	-1.1710577	0.45203263	0.1078504	-1.5034938	0.41608046	-0.019410238	-1.1867487	0.42646804	-0.020751752	-1.381468	0.77998337	-0.20269387	-1.361873	0.77402856	0.14762093	-1.2981927	0.82375233	-0.1611566	-1.2817897	0.83374153	0.08272997	-1.4648686	0.90108787	-0.015734636	-1.3258366	1.3091775	-0.21760582	-1.3502621	1.2947539	0.14727036	-1.4174282	1.3404688	-0.040089224	-1.2637606	0.99013725	-0.28655934	-1.4868775	1.0087105	0.20000553	-1.0338219	0.90922422	-0.2322408	-1.4141364	0.7833935	0.23831842
3	0.008	-1.5187083	0.031238536	-0.10863186	-0.89572732	0.13577005	0.091445534	-1.6383407	0.070641767	-0.12471163	-1.0203719	0.088185513	0.10121538	-1.6363619	0.081159745	-0.038039818	-1.0114973	0.11925792	0.016636565	NaN	NaN	NaN	-1.0503254	0.040172604	0.029305035	-1.4747139	0.40426247	-0.13977344	-1.164908	0.4508713	0.10776312	-1.4992455	0.41519501	-0.019278258	-1.1807735	0.42490422	-0.021076828	-1.3766841	0.77865399	-0.20211263	-1.3554632	0.77248145	0.14764552	-1.292817	0.82229084	-0.1616082	-1.2753906	0.83223552	0.082499675	-1.4589787	0.8997056	-0.014984935	-1.3200373	1.3078269	-0.2172213	-1.3444854	1.2932308	0.14765476	-1.411626	1.3390695	-0.039681312	-1.2561205	0.98899051	-0.2858738	-1.4829243	1.0083988	0.20020507	-1.0259564	0.90957181	-0.23069553	-1.4123557	0.78193095	0.23877299
4	0.012	-1.5186417	0.03122162	-0.10865806	-0.88499009	0.13874708	0.091526923	-1.6378975	0.071331007	-0.12470164	-1.0088184	0.089075964	0.10059309	-1.6386888	0.081147197	-0.036929613	-1.0002138	0.12069545	0.016155236	NaN	NaN	NaN	-1.0378824	0.040742689	0.028452934	-1.4709075	0.40344137	-0.1396584	-1.1586528	0.44970326	0.10776614	-1.4950101	0.41436267	-0.019095439	-1.1746666	0.42341316	-0.021374242	-1.3717111	0.77729304	-0.20181256	-1.3488501	0.77097349	0.14772547	-1.2874073	0.82088909	-0.16196908	-1.2688266	0.83075389	0.082269974	-1.4530993	0.89842526	-0.014399197	-1.3141983	1.3065245	-0.21683334	-1.3386308	1.2917308	0.14803356	-1.4057775	1.337698	-0.039264854	-1.2485498	0.98788004	-0.28513619	-1.4790721	1.0082174	0.20052309	-1.0181491	0.90985645	-0.22911891	-1.4103537	0.78053672	0.23924361
5	0.016	-1.5185747	0.031203181	-0.10868964	-0.87482893	0.14123014	0.091399912	-1.6374874	0.072115498	-0.12471499	-0.99792009	0.089778002	0.099839075	-1.6396837	0.081494957	-0.036272852	-0.98953063	0.12193091	0.015596058	NaN	NaN	NaN	-1.0261609	0.041256046	0.027507141	-1.4670683	0.40268143	-0.13955297	-1.1522359	0.4485549	0.10784991	-1.4907803	0.4135735	-0.018893937	-1.1683853	0.42202588	-0.021648721	-1.3666184	0.77594594	-0.20163265	-1.3420473	0.76954942	0.14786019	-1.2819541	0.8195537	-0.16221505	-1.2620905	0.82932615	0.082059511	-1.4471936	0.89725772	-0.013906327	-1.308307	1.3052795	-0.21644614	-1.3327015	1.2902566	0.14842066	-1.3998841	1.3363616	-0.038854493	-1.241068	0.98680426	-0.2843523	-1.4748072	1.0078426	0.20062161	-1.0104011	0.91008286	-0.22751228	-1.4081257	0.77922445	0.23971757
6	0.02	-1.5185111	0.031181362	-0.10872239	-0.86522373	0.14318584	0.091064913	-1.6371414	0.072986732	-0.12471958	-0.98767721	0.090274387	0.098991556	-1.6388407	0.082351929	-0.036305606	-0.97948292	0.12291402	0.014955052	NaN	NaN	NaN	-1.0152114	0.0417002	0.026527182	-1.4631792	0.40198445	-0.13944611	-1.1456254	0.4474501	0.10797884	-1.4864672	0.41283142	-0.018721355	-1.1619125	0.42077934	-0.02191037	-1.3614646	0.77465799	-0.20143774	-1.3351276	0.76822464	0.14803152	-1.2764713	0.81827647	-0.16238407	-1.2552476	0.82796938	0.081865547	-1.4412471	0.89618984	-0.013435684	-1.3023573	1.3040965	-0.21605659	-1.3266979	1.2888152	0.14882491	-1.3939497	1.3350756	-0.038461853	-1.2336847	0.98575775	-0.28351911	-1.4698362	1.0070941	0.20031265	-1.0027437	0.91025629	-0.22591422	-1.4057755	0.77799697	0.24017334
7	0.024	-1.518455	0.031157335	-0.10875163	-0.85614417	0.14461156	0.09053689	-1.6368147	0.073946412	-0.12469057	-0.97806582	0.090557901	0.098104887	-1.6369641	0.083556386	-0.03677604	-0.97008724	0.12360373	0.014237785	NaN	NaN	NaN	-1.0051163	0.042011639	0.02559983	-1.4592207	0.40134628	-0.13932548	-1.1388342	0.44640645	0.10810102	-1.4819603	0.41216141	-0.018600003	-1.1552512	0.41971236	-0.022165747	-1.3562681	0.77345352	-0.20117895	-1.3281366	0.76700131	0.14822786	-1.2709821	0.81705212	-0.16253303	-1.2484594	0.82667298	0.081652918	-1.4353055	0.89513503	-0.012944811	-1.2963534	1.3029736	-0.21565651	-1.3206109	1.2874171	0.14925014	-1.3879755	1.3338484	-0.038083284	-1.2263995	0.9847345	-0.28261841	-1.464348	1.0061176	0.19974347	-0.9952347	0.91036811	-0.22438421	-1.403437	0.77684709	0.24059067
8	0.028	-1.5184096	0.031132903	-0.10877602	-0.84757868	0.1455285	0.089813644	-1.6363278	0.075001617	-0.12466998	-0.96907669	0.090622394	0.097216737	-1.6349731	0.084889058	-0.037359573	-0.96134024	0.12397587	0.013457082	NaN	NaN	NaN	-0.99590422	0.042120833	0.024736595	-1.4551791	0.40075742	-0.139188	-1.1318851	0.44544809	0.10816877	-1.4772704	0.41156046	-0.018497736	-1.1484257	0.41885195	-0.022399255	-1.3510271	0.77233262	-0.2008495	-1.3210333	0.76589555	0.1484658	-1.2654988	0.81588979	-0.16270006	-1.2418944	0.82540448	0.081377371	-1.4294739	0.89389264	-0.012391546	-1.2903044	1.3019004	-0.21523718	-1.314439	1.2860719	0.14969775	-1.3819566	1.3326781	-0.037698667	-1.2192106	0.98372794	-0.28163314	-1.458728	1.0051877	0.19919415	-0.98790785	0.91040505	-0.22295544	-1.4011885	0.77576915	0.24095956
9	0.032	-1.5183762	0.031108833	-0.10879869	-0.83953776	0.14596473	0.088882469	-1.6355178	0.076157486	-0.12473796	-0.96071621	0.090456752	0.096327198	-1.6332582	0.086235547	-0.037893605	-0.95322373	0.12402345	0.012623637	NaN	NaN	NaN	-0.98753034	0.041983664	0.023916768	-1.4510375	0.4002068	-0.13904562	-1.1247643	0.44460966	0.10815715	-1.4725167	0.41099101	-0.018362047	-1.1414731	0.41820479	-0.022583897	-1.3457342	0.77128013	-0.20044625	-1.313747	0.76493306	0.14877068	-1.2600013	0.81480567	-0.16288703	-1.235517	0.8241604	0.081043031	-1.4238261	0.89226451	-0.011734133	-1.2842161	1.3008654	-0.21479191	-1.3081979	1.2847854	0.15016825	-1.3758805	1.3315653	-0.037275644	-1.2121248	0.9827353	-0.28057157	-1.4532018	1.0044524	0.19881805	-0.9807324	0.91036563	-0.22160968	-1.3990049	0.77477241	0.24128844
10	0.036	-1.5183546	0.031084653	-0.10882477	-0.83203773	0.14593437	0.087740223	-1.6344897	0.077417202	-0.12490835	-0.95298967	0.090052593	0.095415129	-1.6318106	0.087582471	-0.038347434	-0.94572315	0.1237409	0.011737905	NaN	NaN	NaN	-0.97994608	0.041580147	0.023149013	-1.4467731	0.39968227	-0.13892079	-1.1174663	0.44392058	0.10804851	-1.4677415	0.4104373	-0.018189714	-1.134423	0.41776063	-0.022720858	-1.3403812	0.77028773	-0.19997543	-1.306343	0.76411165	0.14913036	-1.2544276	0.81380685	-0.1630476	-1.2290624	0.82299669	0.080722234	-1.4182486	0.8903423	-0.010976001	-1.2780877	1.2998666	-0.21431918	-1.3019062	1.2835614	0.15066009	-1.3697348	1.330515	-0.036790153	-1.2051516	0.98176235	-0.27945373	-1.4477685	1.0038891	0.1985959	-0.97362455	0.91026805	-0.22029545	-1.3967157	0.77386632	0.2416023
11	0.04	-1.5183438	0.031059945	-0.10885696	-0.82508408	0.14543181	0.086403234	-1.6334993	0.078775712	-0.12513081	-0.9458916	0.089417067	0.094457147	-1.6304868	0.088966629	-0.03875224	-0.93883317	0.12312435	0.010788463	NaN	NaN	NaN	-0.97313079	0.040920344	0.022428636	-1.4423655	0.39917111	-0.13883025	-1.1100414	0.44338794	0.10781684	-1.4628627	0.40991458	-0.018027876	-1.1272985	0.41749762	-0.022842434	-1.3349623	0.76935662	-0.19946295	-1.2990169	0.76339176	0.14949648	-1.2487026	0.8128865	-0.16310661	-1.2223143	0.82196903	0.080491019	-1.4124566	0.88855273	-0.010173914	-1.2719114	1.2989148	-0.21381971	-1.2955747	1.2824052	0.15117156	-1.3635176	1.3295295	-0.036245633	-1.1982935	0.98081922	-0.27828595	-1.4423374	1.0034186	0.19844745	-0.96651229	0.91014098	-0.21897179	-1.3940815	0.77304678	0.24193669
12	0.044	-1.5183387	0.031035829	-0.1088943	-0.81867008	0.14444368	0.084907567	-1.632591	0.080211853	-0.12538699	-0.93940405	0.088576882	0.093424335	-1.6291575	0.090428496	-0.039155211	-0.93254418	0.12219077	0.0097606588	NaN	NaN	NaN	-0.96707178	0.040032519	0.021716448	-1.4378017	0.39866387	-0.13877035	-1.1025464	0.44300108	0.10744643	-1.4578236	0.40941486	-0.017904766	-1.1201306	0.41738324	-0.022972418	-1.3294737	0.76847659	-0.19893401	-1.2918015	0.76275897	0.14985576	-1.2427945	0.81203213	-0.1630217	-1.2152644	0.82107851	0.080364898	-1.406251	0.88725501	-0.0093789049	-1.2656749	1.2980286	-0.21329234	-1.2892015	1.2813216	0.15170189	-1.3572409	1.3286049	-0.03568111	-1.1915494	0.97990907	-0.27706389	-1.4368404	1.0029922	0.19831879	-0.95941214	0.90999722	-0.21765023	-1.3909572	0.7723136	0.24233136
13	0.048	-1.5183256	0.031013959	-0.10893479	-0.81278609	0.14296688	0.083298637	-1.631601	0.081706735	-0.1256995	-0.93350349	0.087560231	0.092290317	-1.6277589	0.091987865	-0.039595119	-0.92683221	0.12097562	0.0086525738	NaN	NaN	NaN	-0.96174572	0.038935423	0.020989578	-1.4330754	0.39815759	-0.13872604	-1.0949872	0.44274825	0.1069505	-1.4526642	0.40889484	-0.017798745	-1.1129533	0.41737744	-0.023104848	-1.3239112	0.76763019	-0.19839386	-1.2843958	0.76228245	0.15027479	-1.23674	0.81123381	-0.16282479	-1.2080162	0.82030447	0.080309556	-1.3996725	0.88644153	-0.0085986686	-1.2593732	1.297222	-0.21274043	-1.2827725	1.2803109	0.15224893	-1.3509337	1.3277274	-0.035177509	-1.184921	0.97901983	-0.27578406	-1.4312507	1.002597	0.19819247	-0.95241952	0.90982074	-0.21638333	-1.3873631	0.77167912	0.24280677
